<mxfile host="Electron" agent="Mozilla/5.0 (Macintosh; Intel Mac OS X 10_15_7) AppleWebKit/537.36 (KHTML, like Gecko) draw.io/24.7.17 Chrome/128.0.6613.36 Electron/32.0.1 Safari/537.36" version="24.7.17">
  <diagram name="Strona-1" id="fN5cMSLGvp_toGVqdjRU">
    <mxGraphModel dx="1178" dy="739" grid="1" gridSize="10" guides="1" tooltips="1" connect="1" arrows="1" fold="1" page="1" pageScale="1" pageWidth="827" pageHeight="1169" math="0" shadow="0">
      <root>
        <mxCell id="0" />
        <mxCell id="1" parent="0" />
        <mxCell id="f3wkUpmn9FxH9nC6ErNw-5" style="edgeStyle=orthogonalEdgeStyle;rounded=0;orthogonalLoop=1;jettySize=auto;html=1;entryX=0;entryY=0.5;entryDx=0;entryDy=0;" parent="1" source="f3wkUpmn9FxH9nC6ErNw-1" target="f3wkUpmn9FxH9nC6ErNw-2" edge="1">
          <mxGeometry relative="1" as="geometry" />
        </mxCell>
        <mxCell id="f3wkUpmn9FxH9nC6ErNw-8" value="5 bit" style="edgeLabel;html=1;align=center;verticalAlign=middle;resizable=0;points=[];" parent="f3wkUpmn9FxH9nC6ErNw-5" vertex="1" connectable="0">
          <mxGeometry x="-0.1639" y="2" relative="1" as="geometry">
            <mxPoint y="-8" as="offset" />
          </mxGeometry>
        </mxCell>
        <mxCell id="f3wkUpmn9FxH9nC6ErNw-1" value="Program Counter" style="rounded=0;whiteSpace=wrap;html=1;" parent="1" vertex="1">
          <mxGeometry x="120" y="170" width="120" height="180" as="geometry" />
        </mxCell>
        <mxCell id="f3wkUpmn9FxH9nC6ErNw-7" style="edgeStyle=orthogonalEdgeStyle;rounded=0;orthogonalLoop=1;jettySize=auto;html=1;entryX=0;entryY=0.5;entryDx=0;entryDy=0;" parent="1" source="f3wkUpmn9FxH9nC6ErNw-2" target="f3wkUpmn9FxH9nC6ErNw-6" edge="1">
          <mxGeometry relative="1" as="geometry" />
        </mxCell>
        <mxCell id="f3wkUpmn9FxH9nC6ErNw-9" value="6 bit" style="edgeLabel;html=1;align=center;verticalAlign=middle;resizable=0;points=[];" parent="f3wkUpmn9FxH9nC6ErNw-7" vertex="1" connectable="0">
          <mxGeometry x="-0.2137" y="2" relative="1" as="geometry">
            <mxPoint y="-8" as="offset" />
          </mxGeometry>
        </mxCell>
        <mxCell id="f3wkUpmn9FxH9nC6ErNw-2" value="&lt;div&gt;Program memory&lt;/div&gt;" style="rounded=0;whiteSpace=wrap;html=1;" parent="1" vertex="1">
          <mxGeometry x="330" y="170" width="120" height="180" as="geometry" />
        </mxCell>
        <mxCell id="f3wkUpmn9FxH9nC6ErNw-4" style="edgeStyle=orthogonalEdgeStyle;rounded=0;orthogonalLoop=1;jettySize=auto;html=1;exitX=0.5;exitY=1;exitDx=0;exitDy=0;" parent="1" source="f3wkUpmn9FxH9nC6ErNw-2" target="f3wkUpmn9FxH9nC6ErNw-2" edge="1">
          <mxGeometry relative="1" as="geometry" />
        </mxCell>
        <mxCell id="f3wkUpmn9FxH9nC6ErNw-11" style="edgeStyle=orthogonalEdgeStyle;rounded=0;orthogonalLoop=1;jettySize=auto;html=1;exitX=1;exitY=0.75;exitDx=0;exitDy=0;" parent="1" source="f3wkUpmn9FxH9nC6ErNw-6" target="f3wkUpmn9FxH9nC6ErNw-10" edge="1">
          <mxGeometry relative="1" as="geometry">
            <mxPoint x="860" y="399.9999999999999" as="targetPoint" />
            <Array as="points">
              <mxPoint x="690" y="305" />
              <mxPoint x="690" y="380" />
            </Array>
          </mxGeometry>
        </mxCell>
        <mxCell id="f3wkUpmn9FxH9nC6ErNw-12" value="OP (3 bit)" style="edgeLabel;html=1;align=center;verticalAlign=middle;resizable=0;points=[];" parent="f3wkUpmn9FxH9nC6ErNw-11" vertex="1" connectable="0">
          <mxGeometry x="0.4115" relative="1" as="geometry">
            <mxPoint x="-63" y="-10" as="offset" />
          </mxGeometry>
        </mxCell>
        <mxCell id="f3wkUpmn9FxH9nC6ErNw-24" style="edgeStyle=orthogonalEdgeStyle;rounded=0;orthogonalLoop=1;jettySize=auto;html=1;exitX=1;exitY=0.25;exitDx=0;exitDy=0;entryX=0;entryY=0.25;entryDx=0;entryDy=0;" parent="1" source="f3wkUpmn9FxH9nC6ErNw-6" target="f3wkUpmn9FxH9nC6ErNw-13" edge="1">
          <mxGeometry relative="1" as="geometry" />
        </mxCell>
        <mxCell id="f3wkUpmn9FxH9nC6ErNw-25" value="Address (2 bit)" style="edgeLabel;html=1;align=center;verticalAlign=middle;resizable=0;points=[];" parent="f3wkUpmn9FxH9nC6ErNw-24" vertex="1" connectable="0">
          <mxGeometry x="0.2205" y="-2" relative="1" as="geometry">
            <mxPoint x="8" y="-19" as="offset" />
          </mxGeometry>
        </mxCell>
        <mxCell id="f3wkUpmn9FxH9nC6ErNw-31" style="edgeStyle=orthogonalEdgeStyle;rounded=0;orthogonalLoop=1;jettySize=auto;html=1;exitX=1;exitY=1;exitDx=0;exitDy=0;entryX=0;entryY=1;entryDx=0;entryDy=0;" parent="1" source="f3wkUpmn9FxH9nC6ErNw-6" target="f3wkUpmn9FxH9nC6ErNw-10" edge="1">
          <mxGeometry relative="1" as="geometry" />
        </mxCell>
        <mxCell id="f3wkUpmn9FxH9nC6ErNw-32" value="???" style="edgeLabel;html=1;align=center;verticalAlign=middle;resizable=0;points=[];" parent="f3wkUpmn9FxH9nC6ErNw-31" vertex="1" connectable="0">
          <mxGeometry x="-0.2376" y="1" relative="1" as="geometry">
            <mxPoint x="30" y="-7" as="offset" />
          </mxGeometry>
        </mxCell>
        <mxCell id="f3wkUpmn9FxH9nC6ErNw-6" value="Instruction Decoder" style="rounded=0;whiteSpace=wrap;html=1;" parent="1" vertex="1">
          <mxGeometry x="520" y="170" width="120" height="180" as="geometry" />
        </mxCell>
        <mxCell id="f3wkUpmn9FxH9nC6ErNw-16" style="edgeStyle=orthogonalEdgeStyle;rounded=0;orthogonalLoop=1;jettySize=auto;html=1;exitX=0.5;exitY=1;exitDx=0;exitDy=0;entryX=0.5;entryY=0;entryDx=0;entryDy=0;" parent="1" source="f3wkUpmn9FxH9nC6ErNw-10" target="f3wkUpmn9FxH9nC6ErNw-15" edge="1">
          <mxGeometry relative="1" as="geometry" />
        </mxCell>
        <mxCell id="f3wkUpmn9FxH9nC6ErNw-19" value="8 bit" style="edgeLabel;html=1;align=center;verticalAlign=middle;resizable=0;points=[];" parent="f3wkUpmn9FxH9nC6ErNw-16" vertex="1" connectable="0">
          <mxGeometry x="-0.1815" y="1" relative="1" as="geometry">
            <mxPoint x="24" as="offset" />
          </mxGeometry>
        </mxCell>
        <mxCell id="f3wkUpmn9FxH9nC6ErNw-21" style="edgeStyle=orthogonalEdgeStyle;rounded=0;orthogonalLoop=1;jettySize=auto;html=1;" parent="1" source="f3wkUpmn9FxH9nC6ErNw-10" edge="1">
          <mxGeometry relative="1" as="geometry">
            <mxPoint x="1190" y="379.9999999999999" as="targetPoint" />
          </mxGeometry>
        </mxCell>
        <mxCell id="f3wkUpmn9FxH9nC6ErNw-10" value="ALU" style="verticalLabelPosition=middle;verticalAlign=middle;html=1;shape=trapezoid;perimeter=trapezoidPerimeter;whiteSpace=wrap;size=0.23;arcSize=10;flipV=1;labelPosition=center;align=center;" parent="1" vertex="1">
          <mxGeometry x="890" y="320" width="230" height="120" as="geometry" />
        </mxCell>
        <mxCell id="f3wkUpmn9FxH9nC6ErNw-13" value="Register File" style="rounded=0;whiteSpace=wrap;html=1;" parent="1" vertex="1">
          <mxGeometry x="1090" y="140" width="90" height="70" as="geometry" />
        </mxCell>
        <mxCell id="f3wkUpmn9FxH9nC6ErNw-14" style="edgeStyle=orthogonalEdgeStyle;rounded=0;orthogonalLoop=1;jettySize=auto;html=1;entryX=0.706;entryY=1.029;entryDx=0;entryDy=0;entryPerimeter=0;" parent="1" source="f3wkUpmn9FxH9nC6ErNw-13" target="f3wkUpmn9FxH9nC6ErNw-10" edge="1">
          <mxGeometry relative="1" as="geometry" />
        </mxCell>
        <mxCell id="f3wkUpmn9FxH9nC6ErNw-18" style="edgeStyle=orthogonalEdgeStyle;rounded=0;orthogonalLoop=1;jettySize=auto;html=1;entryX=0.25;entryY=0;entryDx=0;entryDy=0;exitX=0.5;exitY=1;exitDx=0;exitDy=0;" parent="1" source="f3wkUpmn9FxH9nC6ErNw-15" target="f3wkUpmn9FxH9nC6ErNw-10" edge="1">
          <mxGeometry relative="1" as="geometry">
            <Array as="points">
              <mxPoint x="1005" y="640" />
              <mxPoint x="850" y="640" />
              <mxPoint x="850" y="270" />
              <mxPoint x="947" y="270" />
            </Array>
          </mxGeometry>
        </mxCell>
        <mxCell id="f3wkUpmn9FxH9nC6ErNw-20" value="8 bit" style="edgeLabel;html=1;align=center;verticalAlign=middle;resizable=0;points=[];" parent="f3wkUpmn9FxH9nC6ErNw-18" vertex="1" connectable="0">
          <mxGeometry x="-0.9392" y="-2" relative="1" as="geometry">
            <mxPoint x="27" as="offset" />
          </mxGeometry>
        </mxCell>
        <mxCell id="f3wkUpmn9FxH9nC6ErNw-15" value="Accumulator" style="rounded=0;whiteSpace=wrap;html=1;" parent="1" vertex="1">
          <mxGeometry x="945" y="540" width="120" height="60" as="geometry" />
        </mxCell>
        <mxCell id="f3wkUpmn9FxH9nC6ErNw-22" value="Carry flag" style="rounded=1;whiteSpace=wrap;html=1;" parent="1" vertex="1">
          <mxGeometry x="1190" y="370" width="60" height="20" as="geometry" />
        </mxCell>
        <mxCell id="f3wkUpmn9FxH9nC6ErNw-27" value="" style="endArrow=classic;html=1;rounded=0;" parent="1" edge="1">
          <mxGeometry relative="1" as="geometry">
            <mxPoint x="850" y="270" as="sourcePoint" />
            <mxPoint x="1140" y="110" as="targetPoint" />
            <Array as="points">
              <mxPoint x="850" y="110" />
            </Array>
          </mxGeometry>
        </mxCell>
        <mxCell id="f3wkUpmn9FxH9nC6ErNw-30" value="A (8 bit)" style="edgeLabel;html=1;align=center;verticalAlign=middle;resizable=0;points=[];" parent="f3wkUpmn9FxH9nC6ErNw-27" vertex="1" connectable="0">
          <mxGeometry x="0.1766" y="1" relative="1" as="geometry">
            <mxPoint x="50" y="-9" as="offset" />
          </mxGeometry>
        </mxCell>
        <mxCell id="f3wkUpmn9FxH9nC6ErNw-29" value="" style="endArrow=classic;html=1;rounded=0;entryX=0.5;entryY=0;entryDx=0;entryDy=0;" parent="1" target="f3wkUpmn9FxH9nC6ErNw-13" edge="1">
          <mxGeometry width="50" height="50" relative="1" as="geometry">
            <mxPoint x="1135" y="110" as="sourcePoint" />
            <mxPoint x="970" y="360" as="targetPoint" />
          </mxGeometry>
        </mxCell>
      </root>
    </mxGraphModel>
  </diagram>
</mxfile>
